<svg xmlns="http://www.w3.org/2000/svg" version="1.1" id="_레이어_1" data-name="레이어_1" viewBox="0 0 128 128" width="128" height="128"><metadata><rdf:RDF xmlns:rdf="http://www.w3.org/1999/02/22-rdf-syntax-ns#" xmlns:dc="http://purl.org/dc/elements/1.1/"><rdf:Description><dc:creator>RealFaviconGenerator</dc:creator><dc:source>https://realfavicongenerator.net</dc:source></rdf:Description></rdf:RDF></metadata><path d="M124.2,64c0,0,0-.2,0-.3h0c4-33.6-7.8-60.8-26.4-60.8-10.7,0-21.1,8.2-29,21.1-4.6-12.9-13-21.1-23.6-21.1-18.6,0-37.1,27.1-41.5,60.8h0c0,0,0,.2,0,.3,0,0,0,.2,0,.3h0c-4,33.6,7.8,60.8,26.4,60.8,10.7,0,21.1-8.2,29-21.1,4.6,12.9,13,21.1,23.6,21.1,18.6,0,37.1-27.1,41.5-60.8h0c0,0,0-.2,0-.3Z"></path><style>@media (prefers-color-scheme: light) { :root { filter: contrast(1) brightness(1); } }
@media (prefers-color-scheme: dark) { :root { filter: contrast(0.5405405405405405) brightness(3); } }
</style></svg>